Motion_mu02
version=1
nRows=8
nColumns=43
inDegrees=yes
endheader
time	pelvis_tilt	pelvis_list	pelvis_rotation	pelvis_tx	pelvis_ty	pelvis_tz	hip_flexion_r	hip_adduction_r	hip_rotation_r	knee_angle_r	ankle_angle_r	subtalar_angle_r	mtp_angle_r	hip_flexion_l	hip_adduction_l	hip_rotation_l	knee_angle_l	ankle_angle_l	subtalar_angle_l	mtp_angle_l	lumbar_extension	lumbar_bending	lumbar_rotation	neck_flexion	neck_lateral_bending	neck_rotation	arm_flex_r	arm_add_r	arm_rot_r	elbow_flex_r	pro_sup_r	wrist_flex_r	wrist_dev_r	hand_finger_flex_r	arm_flex_l	arm_add_l	arm_rot_l	elbow_flex_l	pro_sup_l	wrist_flex_l	wrist_dev_l	hand_finger_flex_l
      0.00250000	     -0.50555545	      5.95287354	    -90.58339171	     -0.00476994	      0.96256454	      0.71101665	      5.12616007	     -4.51965438	     -4.92385188	    -21.38464905	      8.24782282	     -0.93405863	     10.05591261	      8.66070045	     -3.73094154	    -14.23315739	     -9.43366359	      1.49235147	     26.86322177	      3.44455296	     -4.07693108	     -0.74538469	      5.98419912	     39.55385726	     -8.31136952	    -15.99310194	    -29.41114656	   -139.53692357	   -120.46104365	     51.28772536	    115.87631822	     14.63232558	     -9.94740195	    -33.66530639	    143.04332737	    -20.76107122	     46.33434401	     46.24701087	    117.97399650	      3.24449928	      5.73463917	    -20.80410184
      0.00500000	     -0.78987942	      5.69950692	    -90.85738720	     -0.00521572	      0.96302490	      0.71253091	      4.71437065	     -4.12241907	     -4.53321078	    -21.07619488	      7.63958478	     -1.46279856	     10.76635758	      8.12920274	     -4.14439000	    -15.31331939	     -9.29911608	      1.83719341	     28.25190504	      3.66386052	     -4.27872243	     -0.39439087	      6.56128961	     39.25274912	     -8.74802529	    -16.26337919	    -28.83248500	   -139.62842717	   -120.03373624	     51.28856240	    117.02862601	     18.23290549	     -9.58530576	    -39.42821659	    143.12086760	    -20.79193737	     46.46648054	     46.01771465	    114.47593675	      7.24350386	      5.76417979	    -31.29946448
      0.00750000	     -0.79503811	      5.71574944	    -90.86164153	     -0.00516479	      0.96323942	      0.71327602	      4.72664293	     -4.09901465	     -4.51834215	    -21.06075791	      7.64100184	     -1.45013905	     10.76711364	      8.09445741	     -4.14451616	    -15.30946607	     -9.31940539	      1.83323237	     28.24658980	      3.66329567	     -4.25563955	     -0.41641510	      6.53092620	     39.26196942	     -8.75047031	    -16.26595836	    -28.81272811	   -139.64092594	   -120.03113181	     51.27337939	    117.02963947	     18.23638058	     -9.58184430	    -39.42727016	    143.12906515	    -20.78157325	     46.47053381	     46.02137955	    114.48051626	      7.25216853	      5.76311297	    -31.29968639
      0.01000000	     -0.81396977	      5.81896798	    -90.74621219	     -0.00496167	      0.96316096	      0.71405487	      4.68539108	     -4.04269544	     -4.20344353	    -20.81778815	      7.67880537	     -1.23334415	     10.78185953	      8.15365360	     -4.13666156	    -15.26516437	     -9.26272436	      1.80858751	     28.16674096	      3.65472859	     -4.13825348	     -0.38968185	      6.35129285	     39.38113228	     -8.69706121	    -16.29031287	    -28.69221482	   -139.78928241	   -119.83511867	     51.01835359	    117.04493833	     18.39445698	     -9.55131650	    -39.37379623	    143.24936812	    -20.79346890	     46.55031245	     45.90754807	    114.54232241	      7.49672085	      5.78558506	    -31.26883306
      0.01250000	     -0.81666880	      5.83376000	    -90.76034454	     -0.00499115	      0.96338460	      0.71473581	      4.70164502	     -4.01465141	     -4.20069980	    -20.80748176	      7.67864919	     -1.22522670	     10.78220442	      8.12004410	     -4.13997382	    -15.25909863	     -9.27824252	      1.80516082	     28.16411740	      3.65422187	     -4.12271944	     -0.41893291	      6.32775115	     39.38076088	     -8.70142873	    -16.28837950	    -28.67448741	   -139.79689583	   -119.82681927	     51.01005811	    117.04522306	     18.40335948	     -9.55153759	    -39.37053722	    143.25392016	    -20.78753072	     46.55356775	     45.90897571	    114.54267992	      7.50916049	      5.78457275	    -31.26673407
      0.01500000	     -0.83486427	      5.95735413	    -90.68686707	     -0.00483068	      0.96318717	      0.71569078	      4.68489018	     -3.96581010	     -3.93531386	    -20.59516498	      7.66471761	     -0.98415459	     10.79311061	      8.14244875	     -4.13294332	    -15.17546247	     -9.14408412	      1.77779402	     28.10052375	      3.64326965	     -3.95514688	     -0.38970918	      6.23261396	     39.36913446	     -8.65715104	    -16.22357295	    -28.46465607	   -139.91281133	   -119.46517594	     50.75203131	    117.03835583	     18.77434171	     -9.58622932	    -39.23388070	    143.37478722	    -20.77910137	     46.66639680	     45.76194539	    114.51806123	      7.99149818	      5.79273428	    -31.15589010
      0.01750000	     -0.83668534	      5.97015500	    -90.70253794	     -0.00490661	      0.96342105	      0.71632788	      4.70429629	     -3.93710778	     -3.93750263	    -20.58731995	      7.66328645	     -0.97749527	     10.79333466	      8.11024153	     -4.13674397	    -15.17055488	     -9.15958921	      1.77493544	     28.09866133	      3.64286728	     -3.94422708	     -0.42134494	      6.21258298	     39.36723372	     -8.66441320	    -16.22049424	    -28.44874493	   -139.91901691	   -119.45603393	     50.75107913	    117.03693656	     18.78626100	     -9.58961313	    -39.22951492	    143.37771386	    -20.77285979	     46.66753181	     45.76447300	    114.51472932	      8.00647549	      5.79062759	    -31.15255630
      0.02000000	     -0.88108966	      6.12901376	    -90.76944269	     -0.00491161	      0.96322306	      0.71712642	      4.83914404	     -3.89336482	     -3.86668266	    -20.52766100	      7.62964646	     -0.53635984	     10.83184749	      8.18662077	     -4.17886710	    -15.04652452	     -9.08435272	      1.74729763	     27.95740921	      3.62356500	     -3.77837601	     -0.37929796	      6.42880814	     39.42501837	     -8.85942038	    -16.04271470	    -27.90796618	   -139.84320958	   -118.83253846	     50.61903700	    116.81750877	     19.87917279	     -9.90441608	    -38.85214055	    143.56894023	    -20.70596891	     46.63960084	     45.62612460	    114.08795266	      9.50722345	      5.67155793	    -30.82048829
